<svg width="400" height="150" viewBox="0 0 400 150" fill="none" xmlns="http://www.w3.org/2000/svg">
<g clip-path="url(#clip0_2_5)">
<rect x="1.5" y="3.5" width="397" height="145" stroke="white" stroke-width="3"/>
<rect x="212" y="32" width="165" height="100" fill="white"/>
<path d="M239.448 100.3C236.815 100.3 234.381 99.8667 232.148 99C229.915 98.1 227.981 96.85 226.348 95.25C224.715 93.65 223.431 91.7667 222.498 89.6C221.598 87.4333 221.148 85.0667 221.148 82.5C221.148 79.9333 221.598 77.5667 222.498 75.4C223.431 73.2333 224.715 71.35 226.348 69.75C228.015 68.15 229.965 66.9167 232.198 66.05C234.431 65.15 236.865 64.7 239.498 64.7C242.031 64.7 244.415 65.1333 246.648 66C248.881 66.8333 250.765 68.1 252.298 69.8L249.948 72.15C248.515 70.6833 246.931 69.6333 245.198 69C243.465 68.3333 241.598 68 239.598 68C237.498 68 235.548 68.3667 233.748 69.1C231.948 69.8 230.381 70.8167 229.048 72.15C227.715 73.45 226.665 74.9833 225.898 76.75C225.165 78.4833 224.798 80.4 224.798 82.5C224.798 84.6 225.165 86.5333 225.898 88.3C226.665 90.0333 227.715 91.5667 229.048 92.9C230.381 94.2 231.948 95.2167 233.748 95.95C235.548 96.65 237.498 97 239.598 97C241.598 97 243.465 96.6667 245.198 96C246.931 95.3333 248.515 94.2667 249.948 92.8L252.298 95.15C250.765 96.85 248.881 98.1333 246.648 99C244.415 99.8667 242.015 100.3 239.448 100.3ZM274.753 100.3C272.12 100.3 269.67 99.8667 267.403 99C265.17 98.1 263.22 96.85 261.553 95.25C259.92 93.6167 258.636 91.7333 257.703 89.6C256.803 87.4333 256.353 85.0667 256.353 82.5C256.353 79.9333 256.803 77.5833 257.703 75.45C258.636 73.2833 259.92 71.4 261.553 69.8C263.22 68.1667 265.17 66.9167 267.403 66.05C269.636 65.15 272.086 64.7 274.753 64.7C277.386 64.7 279.82 65.15 282.053 66.05C284.286 66.9167 286.22 68.15 287.853 69.75C289.52 71.35 290.803 73.2333 291.703 75.4C292.636 77.5667 293.103 79.9333 293.103 82.5C293.103 85.0667 292.636 87.4333 291.703 89.6C290.803 91.7667 289.52 93.65 287.853 95.25C286.22 96.85 284.286 98.1 282.053 99C279.82 99.8667 277.386 100.3 274.753 100.3ZM274.753 97C276.853 97 278.786 96.65 280.553 95.95C282.353 95.2167 283.903 94.2 285.203 92.9C286.536 91.5667 287.57 90.0333 288.303 88.3C289.036 86.5333 289.403 84.6 289.403 82.5C289.403 80.4 289.036 78.4833 288.303 76.75C287.57 74.9833 286.536 73.45 285.203 72.15C283.903 70.8167 282.353 69.8 280.553 69.1C278.786 68.3667 276.853 68 274.753 68C272.653 68 270.703 68.3667 268.903 69.1C267.103 69.8 265.536 70.8167 264.203 72.15C262.903 73.45 261.87 74.9833 261.103 76.75C260.37 78.4833 260.003 80.4 260.003 82.5C260.003 84.5667 260.37 86.4833 261.103 88.25C261.87 90.0167 262.903 91.5667 264.203 92.9C265.536 94.2 267.103 95.2167 268.903 95.95C270.703 96.65 272.653 97 274.753 97ZM301.396 100V65H315.646C319.38 65 322.646 65.75 325.446 67.25C328.28 68.7167 330.48 70.7667 332.046 73.4C333.613 76.0333 334.396 79.0667 334.396 82.5C334.396 85.9333 333.613 88.9667 332.046 91.6C330.48 94.2333 328.28 96.3 325.446 97.8C322.646 99.2667 319.38 100 315.646 100H301.396ZM305.096 96.8H315.446C318.546 96.8 321.23 96.2 323.496 95C325.796 93.7667 327.58 92.0833 328.846 89.95C330.113 87.7833 330.746 85.3 330.746 82.5C330.746 79.6667 330.113 77.1833 328.846 75.05C327.58 72.9167 325.796 71.25 323.496 70.05C321.23 68.8167 318.546 68.2 315.446 68.2H305.096V96.8ZM346.005 80.65H364.505V83.8H346.005V80.65ZM346.405 96.8H367.455V100H342.705V65H366.705V68.2H346.405V96.8Z" fill="black"/>
<path d="M50.9881 94.3C49.0214 94.3 47.1714 93.8667 45.4381 93C43.7381 92.1333 42.3714 90.9 41.3381 89.3L43.4881 86.8C44.4548 88.2 45.5714 89.2667 46.8381 90C48.1048 90.7333 49.5048 91.1 51.0381 91.1C55.3714 91.1 57.5381 88.5333 57.5381 83.4V62.2H44.7381V59H61.1881V83.25C61.1881 86.95 60.3214 89.7167 58.5881 91.55C56.8881 93.3833 54.3548 94.3 50.9881 94.3ZM82.3869 94.25C80.1536 94.25 78.2036 93.8333 76.5369 93C74.8702 92.1667 73.5702 90.9167 72.6369 89.25C71.7369 87.5833 71.2869 85.5 71.2869 83V67.75H74.8369V82.6C74.8369 85.4 75.5202 87.5167 76.8869 88.95C78.2869 90.35 80.2369 91.05 82.7369 91.05C84.5702 91.05 86.1536 90.6833 87.4869 89.95C88.8536 89.1833 89.8869 88.0833 90.5869 86.65C91.3202 85.2167 91.6869 83.5 91.6869 81.5V67.75H95.2369V94H91.8369V86.8L92.3869 88.1C91.5536 90.0333 90.2536 91.55 88.4869 92.65C86.7536 93.7167 84.7202 94.25 82.3869 94.25ZM121.581 94V88.2L121.431 87.25V77.55C121.431 75.3167 120.797 73.6 119.531 72.4C118.297 71.2 116.447 70.6 113.981 70.6C112.281 70.6 110.664 70.8833 109.131 71.45C107.597 72.0167 106.297 72.7667 105.231 73.7L103.631 71.05C104.964 69.9167 106.564 69.05 108.431 68.45C110.297 67.8167 112.264 67.5 114.331 67.5C117.731 67.5 120.347 68.35 122.181 70.05C124.047 71.7167 124.981 74.2667 124.981 77.7V94H121.581ZM112.531 94.25C110.564 94.25 108.847 93.9333 107.381 93.3C105.947 92.6333 104.847 91.7333 104.081 90.6C103.314 89.4333 102.931 88.1 102.931 86.6C102.931 85.2333 103.247 84 103.881 82.9C104.547 81.7667 105.614 80.8667 107.081 80.2C108.581 79.5 110.581 79.15 113.081 79.15H122.131V81.8H113.181C110.647 81.8 108.881 82.25 107.881 83.15C106.914 84.05 106.431 85.1667 106.431 86.5C106.431 88 107.014 89.2 108.181 90.1C109.347 91 110.981 91.45 113.081 91.45C115.081 91.45 116.797 91 118.231 90.1C119.697 89.1667 120.764 87.8333 121.431 86.1L122.231 88.55C121.564 90.2833 120.397 91.6667 118.731 92.7C117.097 93.7333 115.031 94.25 112.531 94.25ZM148.023 67.5C150.156 67.5 152.023 67.9167 153.623 68.75C155.256 69.55 156.523 70.7833 157.423 72.45C158.356 74.1167 158.823 76.2167 158.823 78.75V94H155.273V79.1C155.273 76.3333 154.573 74.25 153.173 72.85C151.806 71.4167 149.873 70.7 147.373 70.7C145.506 70.7 143.873 71.0833 142.473 71.85C141.106 72.5833 140.04 73.6667 139.273 75.1C138.54 76.5 138.173 78.2 138.173 80.2V94H134.623V67.75H138.023V74.95L137.473 73.6C138.306 71.7 139.64 70.2167 141.473 69.15C143.306 68.05 145.49 67.5 148.023 67.5Z" fill="white"/>
</g>
<defs>
<clipPath id="clip0_2_5">
<rect width="400" height="150" fill="white"/>
</clipPath>
</defs>
</svg>
