<svg width="89" height="29" viewBox="0 0 89 29" fill="none" xmlns="http://www.w3.org/2000/svg">
<g clip-path="url(#clip0_4_9)">
<rect x="1" y="1" width="87" height="27" stroke="white" stroke-width="2"/>
<rect x="41" y="5" width="43" height="20" fill="white"/>
<path d="M10.1976 19.06C9.80428 19.06 9.43428 18.9733 9.08762 18.8C8.74762 18.6267 8.47428 18.38 8.26762 18.06L8.69762 17.56C8.89095 17.84 9.11428 18.0533 9.36762 18.2C9.62095 18.3467 9.90095 18.42 10.2076 18.42C11.0743 18.42 11.5076 17.9067 11.5076 16.88V12.64H8.94762V12H12.2376V16.85C12.2376 17.59 12.0643 18.1433 11.7176 18.51C11.3776 18.8767 10.871 19.06 10.1976 19.06ZM16.4774 19.05C16.0307 19.05 15.6407 18.9667 15.3074 18.8C14.974 18.6333 14.714 18.3833 14.5274 18.05C14.3474 17.7167 14.2574 17.3 14.2574 16.8V13.75H14.9674V16.72C14.9674 17.28 15.104 17.7033 15.3774 17.99C15.6574 18.27 16.0474 18.41 16.5474 18.41C16.914 18.41 17.2307 18.3367 17.4974 18.19C17.7707 18.0367 17.9774 17.8167 18.1174 17.53C18.264 17.2433 18.3374 16.9 18.3374 16.5V13.75H19.0474V19H18.3674V17.56L18.4774 17.82C18.3107 18.2067 18.0507 18.51 17.6974 18.73C17.3507 18.9433 16.944 19.05 16.4774 19.05ZM24.3161 19V17.84L24.2861 17.65V15.71C24.2861 15.2633 24.1595 14.92 23.9061 14.68C23.6595 14.44 23.2895 14.32 22.7961 14.32C22.4561 14.32 22.1328 14.3767 21.8261 14.49C21.5195 14.6033 21.2595 14.7533 21.0461 14.94L20.7261 14.41C20.9928 14.1833 21.3128 14.01 21.6861 13.89C22.0595 13.7633 22.4528 13.7 22.8661 13.7C23.5461 13.7 24.0695 13.87 24.4361 14.21C24.8095 14.5433 24.9961 15.0533 24.9961 15.74V19H24.3161ZM22.5061 19.05C22.1128 19.05 21.7695 18.9867 21.4761 18.86C21.1895 18.7267 20.9695 18.5467 20.8161 18.32C20.6628 18.0867 20.5861 17.82 20.5861 17.52C20.5861 17.2467 20.6495 17 20.7761 16.78C20.9095 16.5533 21.1228 16.3733 21.4161 16.24C21.7161 16.1 22.1161 16.03 22.6161 16.03H24.4261V16.56H22.6361C22.1295 16.56 21.7761 16.65 21.5761 16.83C21.3828 17.01 21.2861 17.2333 21.2861 17.5C21.2861 17.8 21.4028 18.04 21.6361 18.22C21.8695 18.4 22.1961 18.49 22.6161 18.49C23.0161 18.49 23.3595 18.4 23.6461 18.22C23.9395 18.0333 24.1528 17.7667 24.2861 17.42L24.4461 17.91C24.3128 18.2567 24.0795 18.5333 23.7461 18.74C23.4195 18.9467 23.0061 19.05 22.5061 19.05ZM29.6046 13.7C30.0312 13.7 30.4046 13.7833 30.7246 13.95C31.0512 14.11 31.3046 14.3567 31.4846 14.69C31.6712 15.0233 31.7646 15.4433 31.7646 15.95V19H31.0546V16.02C31.0546 15.4667 30.9146 15.05 30.6346 14.77C30.3612 14.4833 29.9746 14.34 29.4746 14.34C29.1012 14.34 28.7746 14.4167 28.4946 14.57C28.2212 14.7167 28.0079 14.9333 27.8546 15.22C27.7079 15.5 27.6346 15.84 27.6346 16.24V19H26.9246V13.75H27.6046V15.19L27.4946 14.92C27.6612 14.54 27.9279 14.2433 28.2946 14.03C28.6612 13.81 29.0979 13.7 29.6046 13.7Z" fill="white"/>
<path d="M51.4896 19.06C50.9629 19.06 50.4762 18.9733 50.0296 18.8C49.5829 18.62 49.1962 18.37 48.8696 18.05C48.5429 17.73 48.2862 17.3533 48.0996 16.92C47.9196 16.4867 47.8296 16.0133 47.8296 15.5C47.8296 14.9867 47.9196 14.5133 48.0996 14.08C48.2862 13.6467 48.5429 13.27 48.8696 12.95C49.2029 12.63 49.5929 12.3833 50.0396 12.21C50.4862 12.03 50.9729 11.94 51.4996 11.94C52.0062 11.94 52.4829 12.0267 52.9296 12.2C53.3762 12.3667 53.7529 12.62 54.0596 12.96L53.5896 13.43C53.3029 13.1367 52.9862 12.9267 52.6396 12.8C52.2929 12.6667 51.9196 12.6 51.5196 12.6C51.0996 12.6 50.7096 12.6733 50.3496 12.82C49.9896 12.96 49.6762 13.1633 49.4096 13.43C49.1429 13.69 48.9329 13.9967 48.7796 14.35C48.6329 14.6967 48.5596 15.08 48.5596 15.5C48.5596 15.92 48.6329 16.3067 48.7796 16.66C48.9329 17.0067 49.1429 17.3133 49.4096 17.58C49.6762 17.84 49.9896 18.0433 50.3496 18.19C50.7096 18.33 51.0996 18.4 51.5196 18.4C51.9196 18.4 52.2929 18.3333 52.6396 18.2C52.9862 18.0667 53.3029 17.8533 53.5896 17.56L54.0596 18.03C53.7529 18.37 53.3762 18.6267 52.9296 18.8C52.4829 18.9733 52.0029 19.06 51.4896 19.06ZM58.5506 19.06C58.0239 19.06 57.5339 18.9733 57.0806 18.8C56.6339 18.62 56.2439 18.37 55.9106 18.05C55.5839 17.7233 55.3273 17.3467 55.1406 16.92C54.9606 16.4867 54.8706 16.0133 54.8706 15.5C54.8706 14.9867 54.9606 14.5167 55.1406 14.09C55.3273 13.6567 55.5839 13.28 55.9106 12.96C56.2439 12.6333 56.6339 12.3833 57.0806 12.21C57.5273 12.03 58.0173 11.94 58.5506 11.94C59.0773 11.94 59.5639 12.03 60.0106 12.21C60.4573 12.3833 60.8439 12.63 61.1706 12.95C61.5039 13.27 61.7606 13.6467 61.9406 14.08C62.1273 14.5133 62.2206 14.9867 62.2206 15.5C62.2206 16.0133 62.1273 16.4867 61.9406 16.92C61.7606 17.3533 61.5039 17.73 61.1706 18.05C60.8439 18.37 60.4573 18.62 60.0106 18.8C59.5639 18.9733 59.0773 19.06 58.5506 19.06ZM58.5506 18.4C58.9706 18.4 59.3573 18.33 59.7106 18.19C60.0706 18.0433 60.3806 17.84 60.6406 17.58C60.9073 17.3133 61.1139 17.0067 61.2606 16.66C61.4073 16.3067 61.4806 15.92 61.4806 15.5C61.4806 15.08 61.4073 14.6967 61.2606 14.35C61.1139 13.9967 60.9073 13.69 60.6406 13.43C60.3806 13.1633 60.0706 12.96 59.7106 12.82C59.3573 12.6733 58.9706 12.6 58.5506 12.6C58.1306 12.6 57.7406 12.6733 57.3806 12.82C57.0206 12.96 56.7073 13.1633 56.4406 13.43C56.1806 13.69 55.9739 13.9967 55.8206 14.35C55.6739 14.6967 55.6006 15.08 55.6006 15.5C55.6006 15.9133 55.6739 16.2967 55.8206 16.65C55.9739 17.0033 56.1806 17.3133 56.4406 17.58C56.7073 17.84 57.0206 18.0433 57.3806 18.19C57.7406 18.33 58.1306 18.4 58.5506 18.4ZM63.8793 19V12H66.7293C67.4759 12 68.1293 12.15 68.6893 12.45C69.2559 12.7433 69.6959 13.1533 70.0093 13.68C70.3226 14.2067 70.4793 14.8133 70.4793 15.5C70.4793 16.1867 70.3226 16.7933 70.0093 17.32C69.6959 17.8467 69.2559 18.26 68.6893 18.56C68.1293 18.8533 67.4759 19 66.7293 19H63.8793ZM64.6193 18.36H66.6893C67.3093 18.36 67.8459 18.24 68.2993 18C68.7593 17.7533 69.1159 17.4167 69.3693 16.99C69.6226 16.5567 69.7493 16.06 69.7493 15.5C69.7493 14.9333 69.6226 14.4367 69.3693 14.01C69.1159 13.5833 68.7593 13.25 68.2993 13.01C67.8459 12.7633 67.3093 12.64 66.6893 12.64H64.6193V18.36ZM72.801 15.13H76.501V15.76H72.801V15.13ZM72.881 18.36H77.091V19H72.141V12H76.941V12.64H72.881V18.36Z" fill="black"/>
</g>
<defs>
<clipPath id="clip0_4_9">
<rect width="89" height="29" fill="white"/>
</clipPath>
</defs>
</svg>
