<svg width="89" height="29" viewBox="0 0 89 29" fill="none" xmlns="http://www.w3.org/2000/svg">
<rect x="2" y="1" width="86" height="27" stroke="black" stroke-width="2"/>
<rect x="5" y="5" width="43" height="20" fill="black"/>
<path d="M16.1976 19.06C15.8043 19.06 15.4343 18.9733 15.0876 18.8C14.7476 18.6267 14.4743 18.38 14.2676 18.06L14.6976 17.56C14.891 17.84 15.1143 18.0533 15.3676 18.2C15.621 18.3467 15.901 18.42 16.2076 18.42C17.0743 18.42 17.5076 17.9067 17.5076 16.88V12.64H14.9476V12H18.2376V16.85C18.2376 17.59 18.0643 18.1433 17.7176 18.51C17.3776 18.8767 16.871 19.06 16.1976 19.06ZM22.4774 19.05C22.0307 19.05 21.6407 18.9667 21.3074 18.8C20.974 18.6333 20.714 18.3833 20.5274 18.05C20.3474 17.7167 20.2574 17.3 20.2574 16.8V13.75H20.9674V16.72C20.9674 17.28 21.104 17.7033 21.3774 17.99C21.6574 18.27 22.0474 18.41 22.5474 18.41C22.914 18.41 23.2307 18.3367 23.4974 18.19C23.7707 18.0367 23.9774 17.8167 24.1174 17.53C24.264 17.2433 24.3374 16.9 24.3374 16.5V13.75H25.0474V19H24.3674V17.56L24.4774 17.82C24.3107 18.2067 24.0507 18.51 23.6974 18.73C23.3507 18.9433 22.944 19.05 22.4774 19.05ZM30.3161 19V17.84L30.2861 17.65V15.71C30.2861 15.2633 30.1595 14.92 29.9061 14.68C29.6595 14.44 29.2895 14.32 28.7961 14.32C28.4561 14.32 28.1328 14.3767 27.8261 14.49C27.5195 14.6033 27.2595 14.7533 27.0461 14.94L26.7261 14.41C26.9928 14.1833 27.3128 14.01 27.6861 13.89C28.0595 13.7633 28.4528 13.7 28.8661 13.7C29.5461 13.7 30.0695 13.87 30.4361 14.21C30.8095 14.5433 30.9961 15.0533 30.9961 15.74V19H30.3161ZM28.5061 19.05C28.1128 19.05 27.7695 18.9867 27.4761 18.86C27.1895 18.7267 26.9695 18.5467 26.8161 18.32C26.6628 18.0867 26.5861 17.82 26.5861 17.52C26.5861 17.2467 26.6495 17 26.7761 16.78C26.9095 16.5533 27.1228 16.3733 27.4161 16.24C27.7161 16.1 28.1161 16.03 28.6161 16.03H30.4261V16.56H28.6361C28.1295 16.56 27.7761 16.65 27.5761 16.83C27.3828 17.01 27.2861 17.2333 27.2861 17.5C27.2861 17.8 27.4028 18.04 27.6361 18.22C27.8695 18.4 28.1961 18.49 28.6161 18.49C29.0161 18.49 29.3595 18.4 29.6461 18.22C29.9395 18.0333 30.1528 17.7667 30.2861 17.42L30.4461 17.91C30.3128 18.2567 30.0795 18.5333 29.7461 18.74C29.4195 18.9467 29.0061 19.05 28.5061 19.05ZM35.6046 13.7C36.0312 13.7 36.4046 13.7833 36.7246 13.95C37.0512 14.11 37.3046 14.3567 37.4846 14.69C37.6712 15.0233 37.7646 15.4433 37.7646 15.95V19H37.0546V16.02C37.0546 15.4667 36.9146 15.05 36.6346 14.77C36.3612 14.4833 35.9746 14.34 35.4746 14.34C35.1012 14.34 34.7746 14.4167 34.4946 14.57C34.2212 14.7167 34.0079 14.9333 33.8546 15.22C33.7079 15.5 33.6346 15.84 33.6346 16.24V19H32.9246V13.75H33.6046V15.19L33.4946 14.92C33.6612 14.54 33.9279 14.2433 34.2946 14.03C34.6612 13.81 35.0979 13.7 35.6046 13.7Z" fill="white"/>
<path d="M56.4896 19.06C55.9629 19.06 55.4762 18.9733 55.0296 18.8C54.5829 18.62 54.1962 18.37 53.8696 18.05C53.5429 17.73 53.2862 17.3533 53.0996 16.92C52.9196 16.4867 52.8296 16.0133 52.8296 15.5C52.8296 14.9867 52.9196 14.5133 53.0996 14.08C53.2862 13.6467 53.5429 13.27 53.8696 12.95C54.2029 12.63 54.5929 12.3833 55.0396 12.21C55.4862 12.03 55.9729 11.94 56.4996 11.94C57.0062 11.94 57.4829 12.0267 57.9296 12.2C58.3762 12.3667 58.7529 12.62 59.0596 12.96L58.5896 13.43C58.3029 13.1367 57.9862 12.9267 57.6396 12.8C57.2929 12.6667 56.9196 12.6 56.5196 12.6C56.0996 12.6 55.7096 12.6733 55.3496 12.82C54.9896 12.96 54.6762 13.1633 54.4096 13.43C54.1429 13.69 53.9329 13.9967 53.7796 14.35C53.6329 14.6967 53.5596 15.08 53.5596 15.5C53.5596 15.92 53.6329 16.3067 53.7796 16.66C53.9329 17.0067 54.1429 17.3133 54.4096 17.58C54.6762 17.84 54.9896 18.0433 55.3496 18.19C55.7096 18.33 56.0996 18.4 56.5196 18.4C56.9196 18.4 57.2929 18.3333 57.6396 18.2C57.9862 18.0667 58.3029 17.8533 58.5896 17.56L59.0596 18.03C58.7529 18.37 58.3762 18.6267 57.9296 18.8C57.4829 18.9733 57.0029 19.06 56.4896 19.06ZM63.5506 19.06C63.0239 19.06 62.5339 18.9733 62.0806 18.8C61.6339 18.62 61.2439 18.37 60.9106 18.05C60.5839 17.7233 60.3273 17.3467 60.1406 16.92C59.9606 16.4867 59.8706 16.0133 59.8706 15.5C59.8706 14.9867 59.9606 14.5167 60.1406 14.09C60.3273 13.6567 60.5839 13.28 60.9106 12.96C61.2439 12.6333 61.6339 12.3833 62.0806 12.21C62.5273 12.03 63.0173 11.94 63.5506 11.94C64.0773 11.94 64.5639 12.03 65.0106 12.21C65.4573 12.3833 65.8439 12.63 66.1706 12.95C66.5039 13.27 66.7606 13.6467 66.9406 14.08C67.1273 14.5133 67.2206 14.9867 67.2206 15.5C67.2206 16.0133 67.1273 16.4867 66.9406 16.92C66.7606 17.3533 66.5039 17.73 66.1706 18.05C65.8439 18.37 65.4573 18.62 65.0106 18.8C64.5639 18.9733 64.0773 19.06 63.5506 19.06ZM63.5506 18.4C63.9706 18.4 64.3573 18.33 64.7106 18.19C65.0706 18.0433 65.3806 17.84 65.6406 17.58C65.9073 17.3133 66.1139 17.0067 66.2606 16.66C66.4073 16.3067 66.4806 15.92 66.4806 15.5C66.4806 15.08 66.4073 14.6967 66.2606 14.35C66.1139 13.9967 65.9073 13.69 65.6406 13.43C65.3806 13.1633 65.0706 12.96 64.7106 12.82C64.3573 12.6733 63.9706 12.6 63.5506 12.6C63.1306 12.6 62.7406 12.6733 62.3806 12.82C62.0206 12.96 61.7073 13.1633 61.4406 13.43C61.1806 13.69 60.9739 13.9967 60.8206 14.35C60.6739 14.6967 60.6006 15.08 60.6006 15.5C60.6006 15.9133 60.6739 16.2967 60.8206 16.65C60.9739 17.0033 61.1806 17.3133 61.4406 17.58C61.7073 17.84 62.0206 18.0433 62.3806 18.19C62.7406 18.33 63.1306 18.4 63.5506 18.4ZM68.8793 19V12H71.7293C72.4759 12 73.1293 12.15 73.6893 12.45C74.2559 12.7433 74.6959 13.1533 75.0093 13.68C75.3226 14.2067 75.4793 14.8133 75.4793 15.5C75.4793 16.1867 75.3226 16.7933 75.0093 17.32C74.6959 17.8467 74.2559 18.26 73.6893 18.56C73.1293 18.8533 72.4759 19 71.7293 19H68.8793ZM69.6193 18.36H71.6893C72.3093 18.36 72.8459 18.24 73.2993 18C73.7593 17.7533 74.1159 17.4167 74.3693 16.99C74.6226 16.5567 74.7493 16.06 74.7493 15.5C74.7493 14.9333 74.6226 14.4367 74.3693 14.01C74.1159 13.5833 73.7593 13.25 73.2993 13.01C72.8459 12.7633 72.3093 12.64 71.6893 12.64H69.6193V18.36ZM77.801 15.13H81.501V15.76H77.801V15.13ZM77.881 18.36H82.091V19H77.141V12H81.941V12.64H77.881V18.36Z" fill="black"/>
</svg>
